<svg width="32" height="32" viewBox="0 0 32 32" fill="none" xmlns="http://www.w3.org/2000/svg">
<g filter="url(#filter0_d)">
<circle cx="16" cy="16" r="12" fill="#007BFB"/>
<path d="M16.214 10.766C16.6807 10.766 17.1077 10.836 17.495 10.976C17.8823 11.1113 18.2137 11.305 18.489 11.557C18.7643 11.809 18.979 12.1123 19.133 12.467C19.287 12.8217 19.364 13.216 19.364 13.65C19.364 14.0233 19.308 14.3687 19.196 14.686C19.0887 15.0033 18.9417 15.3067 18.755 15.596C18.573 15.8853 18.3583 16.1653 18.111 16.436C17.8637 16.7067 17.6047 16.982 17.334 17.262L15.052 19.593C15.276 19.5277 15.4953 19.4787 15.71 19.446C15.9247 19.4087 16.13 19.39 16.326 19.39H18.923C19.1097 19.39 19.2567 19.4437 19.364 19.551C19.476 19.6537 19.532 19.7913 19.532 19.964V21H12.588V20.426C12.588 20.3093 12.6113 20.188 12.658 20.062C12.7093 19.936 12.7887 19.8193 12.896 19.712L15.969 16.632C16.2257 16.3707 16.4543 16.121 16.655 15.883C16.8603 15.645 17.0307 15.4093 17.166 15.176C17.306 14.9427 17.411 14.707 17.481 14.469C17.5557 14.2263 17.593 13.972 17.593 13.706C17.593 13.4633 17.558 13.251 17.488 13.069C17.418 12.8823 17.3177 12.726 17.187 12.6C17.0563 12.474 16.9 12.3807 16.718 12.32C16.5407 12.2547 16.34 12.222 16.116 12.222C15.7007 12.222 15.3577 12.327 15.087 12.537C14.821 12.747 14.6343 13.0293 14.527 13.384C14.4757 13.5613 14.3987 13.6897 14.296 13.769C14.1933 13.8437 14.0627 13.881 13.904 13.881C13.834 13.881 13.757 13.874 13.673 13.86L12.763 13.699C12.833 13.2137 12.9683 12.789 13.169 12.425C13.3697 12.0563 13.6193 11.7507 13.918 11.508C14.2213 11.2607 14.5667 11.0763 14.954 10.955C15.346 10.829 15.766 10.766 16.214 10.766Z" fill="white"/>
</g>
<defs>
<filter id="filter0_d" x="0" y="0" width="32" height="32" filterUnits="userSpaceOnUse" color-interpolation-filters="sRGB">
<feFlood flood-opacity="0" result="BackgroundImageFix"/>
<feColorMatrix in="SourceAlpha" type="matrix" values="0 0 0 0 0 0 0 0 0 0 0 0 0 0 0 0 0 0 127 0"/>
<feOffset/>
<feGaussianBlur stdDeviation="2"/>
<feColorMatrix type="matrix" values="0 0 0 0 0 0 0 0 0 0 0 0 0 0 0 0 0 0 0.45 0"/>
<feBlend mode="normal" in2="BackgroundImageFix" result="effect1_dropShadow"/>
<feBlend mode="normal" in="SourceGraphic" in2="effect1_dropShadow" result="shape"/>
</filter>
</defs>
</svg>
