<svg width="32" height="32" viewBox="0 0 32 32" fill="none" xmlns="http://www.w3.org/2000/svg">
<g filter="url(#filter0_d)">
<circle cx="16" cy="16" r="12" fill="#007BFB"/>
<path d="M18.912 11.272C18.912 11.5547 18.8213 11.784 18.64 11.96C18.464 12.136 18.168 12.224 17.752 12.224H14.568L14.152 14.64C14.6747 14.5333 15.152 14.48 15.584 14.48C16.192 14.48 16.7253 14.5707 17.184 14.752C17.648 14.9333 18.0373 15.184 18.352 15.504C18.6667 15.824 18.904 16.2 19.064 16.632C19.224 17.0587 19.304 17.52 19.304 18.016C19.304 18.6293 19.1947 19.1893 18.976 19.696C18.7627 20.2027 18.464 20.6373 18.08 21C17.696 21.3573 17.24 21.6347 16.712 21.832C16.1893 22.0293 15.6187 22.128 15 22.128C14.6373 22.128 14.2933 22.0907 13.968 22.016C13.6427 21.9413 13.336 21.8427 13.048 21.72C12.7653 21.592 12.5013 21.448 12.256 21.288C12.016 21.1227 11.8 20.9493 11.608 20.768L12.216 19.928C12.344 19.7467 12.5147 19.656 12.728 19.656C12.8613 19.656 12.9947 19.6987 13.128 19.784C13.2667 19.8693 13.4267 19.9627 13.608 20.064C13.7893 20.1653 14 20.2587 14.24 20.344C14.48 20.4293 14.7707 20.472 15.112 20.472C15.4747 20.472 15.7947 20.4133 16.072 20.296C16.3493 20.1787 16.5787 20.016 16.76 19.808C16.9467 19.5947 17.0853 19.344 17.176 19.056C17.272 18.7627 17.32 18.4453 17.32 18.104C17.32 17.4747 17.136 16.984 16.768 16.632C16.4053 16.2747 15.8693 16.096 15.16 16.096C14.6 16.096 14.0373 16.1973 13.472 16.4L12.24 16.048L13.2 10.432H18.912V11.272Z" fill="white"/>
</g>
<defs>
<filter id="filter0_d" x="0" y="0" width="32" height="32" filterUnits="userSpaceOnUse" color-interpolation-filters="sRGB">
<feFlood flood-opacity="0" result="BackgroundImageFix"/>
<feColorMatrix in="SourceAlpha" type="matrix" values="0 0 0 0 0 0 0 0 0 0 0 0 0 0 0 0 0 0 127 0"/>
<feOffset/>
<feGaussianBlur stdDeviation="2"/>
<feColorMatrix type="matrix" values="0 0 0 0 0 0 0 0 0 0 0 0 0 0 0 0 0 0 0.45 0"/>
<feBlend mode="normal" in2="BackgroundImageFix" result="effect1_dropShadow"/>
<feBlend mode="normal" in="SourceGraphic" in2="effect1_dropShadow" result="shape"/>
</filter>
</defs>
</svg>
