<svg width="24" height="24" viewBox="0 0 24 24" fill="none" xmlns="http://www.w3.org/2000/svg">
<circle cx="12" cy="12" r="12" fill="#007BFB"/>
<path d="M12.375 5.766C12.8417 5.766 13.2617 5.83367 13.635 5.969C14.013 6.09967 14.335 6.284 14.601 6.522C14.867 6.75533 15.07 7.03067 15.21 7.348C15.3547 7.66533 15.427 8.00833 15.427 8.377C15.427 8.699 15.3897 8.98367 15.315 9.231C15.245 9.47367 15.14 9.686 15 9.868C14.8647 10.05 14.6967 10.204 14.496 10.33C14.3 10.456 14.076 10.561 13.824 10.645C14.4307 10.8363 14.8833 11.128 15.182 11.52C15.4807 11.912 15.63 12.4043 15.63 12.997C15.63 13.501 15.5367 13.9467 15.35 14.334C15.1633 14.7213 14.9113 15.048 14.594 15.314C14.2767 15.5753 13.908 15.7737 13.488 15.909C13.0727 16.0443 12.6317 16.112 12.165 16.112C11.6563 16.112 11.213 16.0537 10.835 15.937C10.457 15.8203 10.128 15.6477 9.848 15.419C9.568 15.1903 9.33 14.9103 9.134 14.579C8.938 14.2477 8.77 13.865 8.63 13.431L9.393 13.116C9.52367 13.06 9.65667 13.032 9.792 13.032C9.91333 13.032 10.0207 13.0577 10.114 13.109C10.212 13.1603 10.2867 13.235 10.338 13.333C10.422 13.4963 10.513 13.6573 10.611 13.816C10.7137 13.9747 10.835 14.117 10.975 14.243C11.115 14.3643 11.2783 14.4647 11.465 14.544C11.6563 14.6187 11.8827 14.656 12.144 14.656C12.438 14.656 12.6947 14.6093 12.914 14.516C13.1333 14.418 13.3153 14.292 13.46 14.138C13.6093 13.984 13.719 13.8137 13.789 13.627C13.8637 13.4357 13.901 13.2443 13.901 13.053C13.901 12.8103 13.8753 12.591 13.824 12.395C13.7727 12.1943 13.6653 12.024 13.502 11.884C13.3387 11.744 13.103 11.6343 12.795 11.555C12.4917 11.4757 12.0833 11.436 11.57 11.436V10.204C11.9947 10.1993 12.347 10.1597 12.627 10.085C12.907 10.0103 13.1287 9.90767 13.292 9.777C13.46 9.64167 13.5767 9.48067 13.642 9.294C13.7073 9.10733 13.74 8.902 13.74 8.678C13.74 8.19733 13.6093 7.83567 13.348 7.593C13.0867 7.34567 12.7297 7.222 12.277 7.222C11.8663 7.222 11.5257 7.33167 11.255 7.551C10.9843 7.76567 10.7953 8.04333 10.688 8.384C10.632 8.56133 10.555 8.68967 10.457 8.769C10.359 8.84367 10.2307 8.881 10.072 8.881C9.99733 8.881 9.918 8.874 9.834 8.86L8.924 8.699C8.994 8.21367 9.12933 7.789 9.33 7.425C9.53067 7.05633 9.78033 6.75067 10.079 6.508C10.3823 6.26067 10.7277 6.07633 11.115 5.955C11.507 5.829 11.927 5.766 12.375 5.766Z" fill="white"/>
</svg>
