<svg width="66" height="56" viewBox="0 0 66 56" fill="none" xmlns="http://www.w3.org/2000/svg">
<path d="M61.24 46.05H55.06L51.92 35.26L55.33 33.26L64.88 6.5V6.37L62.73 0L57.03 3.56L49.24 25.41L48.11 21.41C48.0895 21.3437 48.0555 21.2824 48.01 21.23L44.55 17.23L46.07 14.72C46.1026 14.6648 46.1239 14.6036 46.1324 14.5401C46.141 14.4765 46.1368 14.4119 46.12 14.35L44.71 9.35C44.3551 8.05728 43.5857 6.91682 42.5198 6.10385C41.4539 5.29088 40.1505 4.85037 38.81 4.85H5.56C2.34 4.85 0 7.42 0 10.95C0 14.48 1.88 16.8 5 16.8H12.55L15.55 27.54C15.5732 27.6214 15.618 27.6951 15.6796 27.7532C15.7412 27.8113 15.8173 27.8516 15.9 27.87L17.75 28.3L17.36 29.07C17.3307 29.1292 17.3142 29.1939 17.3116 29.2599C17.309 29.3259 17.3203 29.3917 17.3448 29.4531C17.3694 29.5144 17.4065 29.5699 17.454 29.6159C17.5014 29.6619 17.558 29.6973 17.62 29.72L19.85 30.56L17.34 32.61C17.2685 32.6672 17.2153 32.7441 17.1868 32.8311C17.1584 32.9182 17.156 33.0116 17.18 33.1L22.36 51.47C22.647 52.5336 23.2707 53.4757 24.1378 54.1553C25.0048 54.8348 26.0686 55.2154 27.17 55.24H60.73H60.82C61.8551 55.2098 62.8422 54.7965 63.59 54.08C64.0555 53.6116 64.4213 53.0539 64.6653 52.4403C64.9094 51.8267 65.0266 51.1701 65.01 50.51C65.02 48.29 63.85 46.05 61.24 46.05ZM62.32 1.16L64.06 6.31L56.16 28.44L52.3 30.2L54.51 23.95L57.62 22.48L57.41 22.05L54.76 23.31L57.09 16.78L58.91 15.92L58.7 15.49L57.32 16.15L59.57 9.85L60.72 9.31L60.51 8.86L59.41 9.38L58.89 8.28L58.46 8.49L58.98 9.59L56.73 15.89L56.1 14.55L55.67 14.76L56.51 16.53L54.18 23.06L52.93 20.43L52.51 20.61L53.96 23.67L51.71 29.93L49.86 26.05L57.71 4.05L62.32 1.16ZM50.6 35.07L52.07 30.82L55.93 29.06L54.65 32.66L50.6 35.07ZM51.51 30.61L49.99 34.99L48.31 30.4L49.63 26.69L51.51 30.61ZM5.02 15.84C1.34 15.84 0.950001 12.41 0.950001 10.93C0.950001 7.93 2.85 5.77 5.57 5.77C6.70035 5.7806 7.79595 6.16208 8.68843 6.85583C9.5809 7.54958 10.2209 8.5172 10.51 9.61L10.77 10.55H8.44C8.36732 10.5503 8.29568 10.5674 8.23073 10.6C8.16578 10.6326 8.10927 10.6799 8.06566 10.738C8.02205 10.7961 7.99252 10.8636 7.97939 10.9351C7.96626 11.0066 7.9699 11.0802 7.99 11.15C8.19758 11.718 8.26952 12.3267 8.20007 12.9274C8.13062 13.5281 7.9217 14.1043 7.59 14.61C7.28521 14.999 6.89472 15.3124 6.44894 15.5258C6.00317 15.7391 5.51415 15.8466 5.02 15.84ZM7.72 15.84C7.95091 15.6553 8.15903 15.4438 8.34 15.21C8.71857 14.6793 8.9765 14.0723 9.09569 13.4314C9.21489 12.7905 9.19247 12.1313 9.03 11.5H11.03L12.26 15.85L7.72 15.84ZM27.21 54.33C26.3073 54.311 25.4351 53.9994 24.7246 53.4422C24.0141 52.885 23.5037 52.1122 23.27 51.24L18.17 33.17L21.17 30.75C21.2338 30.6975 21.283 30.6294 21.3128 30.5523C21.3426 30.4752 21.3519 30.3918 21.34 30.31C21.3275 30.2272 21.2931 30.1492 21.2403 30.0842C21.1876 30.0191 21.1184 29.9694 21.04 29.94L18.51 29.01L18.93 28.18C18.9622 28.1166 18.9796 28.0468 18.9809 27.9758C18.9822 27.9047 18.9673 27.8343 18.9375 27.7698C18.9077 27.7053 18.8636 27.6484 18.8086 27.6034C18.7536 27.5584 18.6891 27.5265 18.62 27.51L16.45 27.01L13.37 16.15L11.51 9.36C11.1105 7.86657 10.1553 6.5823 8.84 5.77H38.84C39.9785 5.77022 41.0852 6.14549 41.989 6.8378C42.8927 7.5301 43.5433 8.50087 43.84 9.6L45.19 14.38L43.51 17.05C43.4522 17.1301 43.4212 17.2263 43.4212 17.325C43.4212 17.4237 43.4522 17.5199 43.51 17.6L47.13 21.75L48.59 26.95L47.51 30.27V30.41L49.51 36.14L47.3 42.52L47.9 42.74L50.15 36.25L51.03 35.73L54.03 46.06H27.99C27.4383 46.0285 26.8871 46.1281 26.3813 46.3505C25.8755 46.573 25.4296 46.9121 25.08 47.34C24.7449 47.8468 24.538 48.4274 24.4771 49.0318C24.4161 49.6363 24.5029 50.2465 24.73 50.81C24.7581 50.9077 24.8172 50.9937 24.8983 51.055C24.9795 51.1163 25.0783 51.1496 25.18 51.15H30.78C30.6866 52.0119 30.3021 52.8161 29.69 53.43C29.3604 53.742 28.9702 53.9829 28.5435 54.1378C28.1169 54.2926 27.663 54.358 27.21 54.33ZM30.82 50.19H25.51C25.3873 49.8087 25.3497 49.4052 25.3998 49.0078C25.4499 48.6104 25.5865 48.2289 25.8 47.89C26.0641 47.581 26.3973 47.3385 26.7726 47.1822C27.1478 47.0258 27.5546 46.96 27.96 46.99C29.95 46.99 30.72 48.61 30.82 50.19ZM62.94 53.41C62.6121 53.7256 62.2226 53.9702 61.7959 54.1285C61.3692 54.2868 60.9144 54.3554 60.46 54.33H30.05C30.154 54.2551 30.2541 54.175 30.35 54.09C31.2473 53.1925 31.7571 51.9791 31.77 50.71C31.7711 50.69 31.7711 50.67 31.77 50.65C31.77 50.65 31.77 50.58 31.77 50.54C31.7944 49.8935 31.6903 49.2487 31.4637 48.6427C31.2371 48.0368 30.8926 47.4818 30.45 47.01H61.24C63.33 47.01 64.08 48.83 64.08 50.54C64.0897 51.0701 63.9938 51.5967 63.7981 52.0894C63.6024 52.5821 63.3107 53.031 62.94 53.41Z" fill="#212529"/>
<path d="M40.6501 33.8802C40.6501 33.7555 40.6006 33.636 40.5125 33.5478C40.4243 33.4597 40.3048 33.4102 40.1801 33.4102H23.8401C23.7155 33.4102 23.5959 33.4597 23.5078 33.5478C23.4196 33.636 23.3701 33.7555 23.3701 33.8802C23.3701 34.0048 23.4196 34.1244 23.5078 34.2125C23.5959 34.3006 23.7155 34.3502 23.8401 34.3502H40.1801C40.3048 34.3502 40.4243 34.3006 40.5125 34.2125C40.6006 34.1244 40.6501 34.0048 40.6501 33.8802Z" fill="#212529"/>
<path d="M25.5101 13.1002H36.8401C36.9648 13.1002 37.0843 13.0506 37.1725 12.9625C37.2606 12.8744 37.3101 12.7548 37.3101 12.6302C37.3101 12.5055 37.2606 12.386 37.1725 12.2978C37.0843 12.2097 36.9648 12.1602 36.8401 12.1602H17.8401C17.7155 12.1602 17.5959 12.2097 17.5078 12.2978C17.4196 12.386 17.3701 12.5055 17.3701 12.6302C17.3701 12.7548 17.4196 12.8744 17.5078 12.9625C17.5959 13.0506 17.7155 13.1002 17.8401 13.1002H25.5101Z" fill="#212529"/>
<path d="M41.3101 17.9407C41.3101 17.8161 41.2606 17.6965 41.1725 17.6084C41.0843 17.5202 40.9648 17.4707 40.8401 17.4707H19.3401C19.2784 17.4707 19.2173 17.4829 19.1603 17.5065C19.1032 17.5301 19.0514 17.5647 19.0078 17.6084C18.9641 17.652 18.9295 17.7038 18.9059 17.7608C18.8823 17.8179 18.8701 17.879 18.8701 17.9407C18.8701 18.0024 18.8823 18.0635 18.9059 18.1206C18.9295 18.1776 18.9641 18.2294 19.0078 18.273C19.0514 18.3167 19.1032 18.3513 19.1603 18.3749C19.2173 18.3985 19.2784 18.4107 19.3401 18.4107H40.8401C40.9648 18.4107 41.0843 18.3612 41.1725 18.273C41.2606 18.1849 41.3101 18.0654 41.3101 17.9407Z" fill="#212529"/>
<path d="M25.4001 23.7291H36.5101C36.6348 23.7291 36.7543 23.6795 36.8425 23.5914C36.9306 23.5033 36.9801 23.3837 36.9801 23.2591C36.9801 23.1344 36.9306 23.0149 36.8425 22.9267C36.7543 22.8386 36.6348 22.7891 36.5101 22.7891H20.8401C20.7155 22.7891 20.5959 22.8386 20.5078 22.9267C20.4196 23.0149 20.3701 23.1344 20.3701 23.2591C20.3701 23.3837 20.4196 23.5033 20.5078 23.5914C20.5959 23.6795 20.7155 23.7291 20.8401 23.7291H25.4101H25.4001Z" fill="#212529"/>
<path d="M39.8 23.7291C39.9247 23.7291 40.0442 23.6795 40.1324 23.5914C40.2205 23.5033 40.27 23.3837 40.27 23.2591C40.27 23.1344 40.2205 23.0149 40.1324 22.9267C40.0442 22.8386 39.9247 22.7891 39.8 22.7891H38.51C38.3854 22.7891 38.2658 22.8386 38.1777 22.9267C38.0896 23.0149 38.04 23.1344 38.04 23.2591C38.04 23.3837 38.0896 23.5033 38.1777 23.5914C38.2658 23.6795 38.3854 23.7291 38.51 23.7291H39.8Z" fill="#212529"/>
<path d="M30.8101 28.6106C30.8101 28.486 30.7606 28.3664 30.6725 28.2783C30.5843 28.1901 30.4648 28.1406 30.3401 28.1406H22.3401C22.2784 28.1406 22.2173 28.1528 22.1603 28.1764C22.1032 28.2 22.0514 28.2346 22.0078 28.2783C21.9641 28.3219 21.9295 28.3737 21.9059 28.4308C21.8823 28.4878 21.8701 28.5489 21.8701 28.6106C21.8701 28.6723 21.8823 28.7335 21.9059 28.7905C21.9295 28.8475 21.9641 28.8993 22.0078 28.943C22.0514 28.9866 22.1032 29.0212 22.1603 29.0448C22.2173 29.0685 22.2784 29.0806 22.3401 29.0806H30.3401C30.4648 29.0806 30.5843 29.0311 30.6725 28.943C30.7606 28.8548 30.8101 28.7353 30.8101 28.6106Z" fill="#212529"/>
<path d="M32.1899 28.6106C32.1899 28.7353 32.2395 28.8548 32.3276 28.943C32.4157 29.0311 32.5353 29.0806 32.6599 29.0806H42.6599C42.7217 29.0806 42.7828 29.0685 42.8398 29.0448C42.8968 29.0212 42.9486 28.9866 42.9923 28.943C43.0359 28.8993 43.0705 28.8475 43.0942 28.7905C43.1178 28.7335 43.1299 28.6723 43.1299 28.6106C43.1299 28.5489 43.1178 28.4878 43.0942 28.4308C43.0705 28.3737 43.0359 28.3219 42.9923 28.2783C42.9486 28.2346 42.8968 28.2 42.8398 28.1764C42.7828 28.1528 42.7217 28.1406 42.6599 28.1406H32.6599C32.5353 28.1406 32.4157 28.1901 32.3276 28.2783C32.2395 28.3664 32.1899 28.486 32.1899 28.6106Z" fill="#212529"/>
<path d="M33.6399 38.7207H25.4099C25.2853 38.7207 25.1657 38.7702 25.0776 38.8584C24.9895 38.9465 24.9399 39.0661 24.9399 39.1907C24.9399 39.3154 24.9895 39.4349 25.0776 39.523C25.1657 39.6112 25.2853 39.6607 25.4099 39.6607H33.6499C33.7746 39.6607 33.8941 39.6112 33.9823 39.523C34.0704 39.4349 34.1199 39.3154 34.1199 39.1907C34.1199 39.0661 34.0704 38.9465 33.9823 38.8584C33.8941 38.7702 33.7746 38.7207 33.6499 38.7207H33.6399Z" fill="#212529"/>
</svg>
